<svg xmlns="http://www.w3.org/2000/svg" viewBox="0 0 1200 900" role="img" aria-labelledby="t d">
<title id="t">Television remote control illustration</title><desc id="d">Original neutral illustration of a replacement smart television remote</desc>
<defs><linearGradient id="bg" x1="0" x2="1" y1="0" y2="1"><stop stop-color="#e1f7f2"/><stop offset="1" stop-color="#fff0e9"/></linearGradient><linearGradient id="body" x1="0" x2="1"><stop stop-color="#243946"/><stop offset="1" stop-color="#07131b"/></linearGradient></defs>
<rect width="1200" height="900" rx="56" fill="url(#bg)"/><circle cx="1025" cy="150" r="115" fill="#ff674d" opacity=".14"/><path d="M115 708c220-88 397 91 620-5 175-74 274-35 358 10" fill="none" stroke="#078579" stroke-width="22" opacity=".16"/>
<text x="600" y="125" text-anchor="middle" fill="#102a38" font-family="Arial,sans-serif" font-size="46" font-weight="700">SMART TV REMOTE</text><text x="600" y="175" text-anchor="middle" fill="#087f73" font-family="Arial,sans-serif" font-size="28">REPLACEMENT CONTROLLER</text>
<g transform="translate(430 205) rotate(-5 170 275)"><rect width="340" height="550" rx="65" fill="url(#body)" stroke="#3b5360" stroke-width="7"/><circle cx="170" cy="76" r="25" fill="#ff674d"/><circle cx="170" cy="185" r="72" fill="#1b2d37" stroke="#7a929c" stroke-width="8"/><circle cx="170" cy="185" r="24" fill="#91d9d1"/><g fill="#d2dee1"><circle cx="90" cy="310" r="25"/><circle cx="170" cy="310" r="25"/><circle cx="250" cy="310" r="25"/><rect x="68" y="370" width="204" height="43" rx="21"/><rect x="68" y="438" width="90" height="43" rx="21"/><rect x="182" y="438" width="90" height="43" rx="21"/></g></g>
<path d="M820 290q120 90 0 180m55-230q190 155 0 310" fill="none" stroke="#ff674d" stroke-width="18" stroke-linecap="round" opacity=".55"/>
<text x="600" y="830" text-anchor="middle" fill="#536472" font-family="Arial,sans-serif" font-size="28">Illustrative image · confirm exact TV compatibility with retailer</text></svg>